<mxfile host="app.diagrams.net" modified="2024-07-21T02:25:29.655Z" agent="Mozilla/5.0 (Windows NT 10.0; Win64; x64) AppleWebKit/537.36 (KHTML, like Gecko) Chrome/126.0.0.0 Safari/537.36" etag="ODgh6hfJTMHjX-PsohoD" version="24.7.2" type="google">
  <diagram id="C5RBs43oDa-KdzZeNtuy" name="Page-1">
    <mxGraphModel grid="1" page="1" gridSize="10" guides="1" tooltips="1" connect="1" arrows="1" fold="1" pageScale="1" pageWidth="827" pageHeight="1169" math="0" shadow="0">
      <root>
        <mxCell id="WIyWlLk6GJQsqaUBKTNV-0" />
        <mxCell id="WIyWlLk6GJQsqaUBKTNV-1" parent="WIyWlLk6GJQsqaUBKTNV-0" />
        <mxCell id="G0iUAl1nleTk9lY2khFc-7" style="edgeStyle=orthogonalEdgeStyle;rounded=0;orthogonalLoop=1;jettySize=auto;html=1;exitX=0.5;exitY=1;exitDx=0;exitDy=0;entryX=0.5;entryY=0;entryDx=0;entryDy=0;" edge="1" parent="WIyWlLk6GJQsqaUBKTNV-1" source="G0iUAl1nleTk9lY2khFc-0" target="G0iUAl1nleTk9lY2khFc-1">
          <mxGeometry relative="1" as="geometry" />
        </mxCell>
        <mxCell id="G0iUAl1nleTk9lY2khFc-0" value="html" style="rounded=1;whiteSpace=wrap;html=1;" vertex="1" parent="WIyWlLk6GJQsqaUBKTNV-1">
          <mxGeometry x="40" y="30" width="120" height="30" as="geometry" />
        </mxCell>
        <mxCell id="G0iUAl1nleTk9lY2khFc-1" value="head" style="rounded=1;whiteSpace=wrap;html=1;" vertex="1" parent="WIyWlLk6GJQsqaUBKTNV-1">
          <mxGeometry x="40" y="100" width="120" height="30" as="geometry" />
        </mxCell>
        <mxCell id="G0iUAl1nleTk9lY2khFc-2" value="body" style="rounded=1;whiteSpace=wrap;html=1;" vertex="1" parent="WIyWlLk6GJQsqaUBKTNV-1">
          <mxGeometry x="220" y="100" width="120" height="30" as="geometry" />
        </mxCell>
        <mxCell id="JMFUNdJK3L3s-YcfuzEm-8" style="edgeStyle=orthogonalEdgeStyle;rounded=0;orthogonalLoop=1;jettySize=auto;html=1;exitX=0.5;exitY=1;exitDx=0;exitDy=0;entryX=0;entryY=0.5;entryDx=0;entryDy=0;" edge="1" parent="WIyWlLk6GJQsqaUBKTNV-1" source="G0iUAl1nleTk9lY2khFc-3" target="G0iUAl1nleTk9lY2khFc-5">
          <mxGeometry relative="1" as="geometry" />
        </mxCell>
        <mxCell id="3mea9cSR7i6ffS_sjvQi-4" style="edgeStyle=orthogonalEdgeStyle;rounded=0;orthogonalLoop=1;jettySize=auto;html=1;exitX=0.5;exitY=1;exitDx=0;exitDy=0;entryX=0;entryY=0.5;entryDx=0;entryDy=0;" edge="1" parent="WIyWlLk6GJQsqaUBKTNV-1" source="G0iUAl1nleTk9lY2khFc-3" target="3mea9cSR7i6ffS_sjvQi-3">
          <mxGeometry relative="1" as="geometry" />
        </mxCell>
        <mxCell id="G0iUAl1nleTk9lY2khFc-3" value=".wrapper" style="rounded=1;whiteSpace=wrap;html=1;" vertex="1" parent="WIyWlLk6GJQsqaUBKTNV-1">
          <mxGeometry x="220" y="170" width="120" height="30" as="geometry" />
        </mxCell>
        <mxCell id="3mea9cSR7i6ffS_sjvQi-0" style="edgeStyle=orthogonalEdgeStyle;rounded=0;orthogonalLoop=1;jettySize=auto;html=1;exitX=1;exitY=0.5;exitDx=0;exitDy=0;entryX=0;entryY=0.5;entryDx=0;entryDy=0;" edge="1" parent="WIyWlLk6GJQsqaUBKTNV-1" source="G0iUAl1nleTk9lY2khFc-4" target="G0iUAl1nleTk9lY2khFc-17">
          <mxGeometry relative="1" as="geometry" />
        </mxCell>
        <mxCell id="G0iUAl1nleTk9lY2khFc-4" value="header" style="rounded=1;whiteSpace=wrap;html=1;" vertex="1" parent="WIyWlLk6GJQsqaUBKTNV-1">
          <mxGeometry x="430" y="170" width="120" height="30" as="geometry" />
        </mxCell>
        <mxCell id="3mea9cSR7i6ffS_sjvQi-27" style="edgeStyle=orthogonalEdgeStyle;rounded=0;orthogonalLoop=1;jettySize=auto;html=1;exitX=1;exitY=0.5;exitDx=0;exitDy=0;entryX=0;entryY=0.5;entryDx=0;entryDy=0;" edge="1" parent="WIyWlLk6GJQsqaUBKTNV-1" source="G0iUAl1nleTk9lY2khFc-5" target="3mea9cSR7i6ffS_sjvQi-26">
          <mxGeometry relative="1" as="geometry" />
        </mxCell>
        <mxCell id="G0iUAl1nleTk9lY2khFc-5" value="footer" style="rounded=1;whiteSpace=wrap;html=1;" vertex="1" parent="WIyWlLk6GJQsqaUBKTNV-1">
          <mxGeometry x="440" y="870" width="120" height="30" as="geometry" />
        </mxCell>
        <mxCell id="G0iUAl1nleTk9lY2khFc-10" value="" style="endArrow=classic;html=1;rounded=0;exitX=1;exitY=0.5;exitDx=0;exitDy=0;entryX=0;entryY=0.5;entryDx=0;entryDy=0;" edge="1" parent="WIyWlLk6GJQsqaUBKTNV-1" source="G0iUAl1nleTk9lY2khFc-1" target="G0iUAl1nleTk9lY2khFc-2">
          <mxGeometry width="50" height="50" relative="1" as="geometry">
            <mxPoint x="390" y="410" as="sourcePoint" />
            <mxPoint x="440" y="360" as="targetPoint" />
          </mxGeometry>
        </mxCell>
        <mxCell id="G0iUAl1nleTk9lY2khFc-11" value="" style="endArrow=classic;html=1;rounded=0;exitX=0.5;exitY=1;exitDx=0;exitDy=0;entryX=0.5;entryY=0;entryDx=0;entryDy=0;" edge="1" parent="WIyWlLk6GJQsqaUBKTNV-1" source="G0iUAl1nleTk9lY2khFc-2" target="G0iUAl1nleTk9lY2khFc-3">
          <mxGeometry width="50" height="50" relative="1" as="geometry">
            <mxPoint x="390" y="410" as="sourcePoint" />
            <mxPoint x="440" y="360" as="targetPoint" />
          </mxGeometry>
        </mxCell>
        <mxCell id="G0iUAl1nleTk9lY2khFc-12" value="" style="endArrow=classic;html=1;rounded=0;exitX=1;exitY=0.5;exitDx=0;exitDy=0;entryX=-0.05;entryY=0.5;entryDx=0;entryDy=0;entryPerimeter=0;" edge="1" parent="WIyWlLk6GJQsqaUBKTNV-1" source="G0iUAl1nleTk9lY2khFc-3" target="G0iUAl1nleTk9lY2khFc-4">
          <mxGeometry width="50" height="50" relative="1" as="geometry">
            <mxPoint x="390" y="410" as="sourcePoint" />
            <mxPoint x="440" y="360" as="targetPoint" />
          </mxGeometry>
        </mxCell>
        <mxCell id="3mea9cSR7i6ffS_sjvQi-1" style="edgeStyle=orthogonalEdgeStyle;rounded=0;orthogonalLoop=1;jettySize=auto;html=1;exitX=1;exitY=0.5;exitDx=0;exitDy=0;entryX=0;entryY=0.5;entryDx=0;entryDy=0;" edge="1" parent="WIyWlLk6GJQsqaUBKTNV-1" source="G0iUAl1nleTk9lY2khFc-17" target="G0iUAl1nleTk9lY2khFc-18">
          <mxGeometry relative="1" as="geometry" />
        </mxCell>
        <mxCell id="G0iUAl1nleTk9lY2khFc-17" value="container" style="rounded=1;whiteSpace=wrap;html=1;" vertex="1" parent="WIyWlLk6GJQsqaUBKTNV-1">
          <mxGeometry x="580" y="170" width="120" height="30" as="geometry" />
        </mxCell>
        <mxCell id="G0iUAl1nleTk9lY2khFc-18" value="nav" style="rounded=1;whiteSpace=wrap;html=1;" vertex="1" parent="WIyWlLk6GJQsqaUBKTNV-1">
          <mxGeometry x="740" y="170" width="120" height="30" as="geometry" />
        </mxCell>
        <mxCell id="G0iUAl1nleTk9lY2khFc-19" value="logo" style="rounded=1;whiteSpace=wrap;html=1;" vertex="1" parent="WIyWlLk6GJQsqaUBKTNV-1">
          <mxGeometry x="740" y="210" width="120" height="30" as="geometry" />
        </mxCell>
        <mxCell id="G0iUAl1nleTk9lY2khFc-20" value="info" style="rounded=1;whiteSpace=wrap;html=1;" vertex="1" parent="WIyWlLk6GJQsqaUBKTNV-1">
          <mxGeometry x="740" y="250" width="120" height="30" as="geometry" />
        </mxCell>
        <mxCell id="JMFUNdJK3L3s-YcfuzEm-0" value="mobile-menus" style="rounded=1;whiteSpace=wrap;html=1;" vertex="1" parent="WIyWlLk6GJQsqaUBKTNV-1">
          <mxGeometry x="580" y="350" width="120" height="30" as="geometry" />
        </mxCell>
        <mxCell id="JMFUNdJK3L3s-YcfuzEm-1" value="nav" style="rounded=1;whiteSpace=wrap;html=1;" vertex="1" parent="WIyWlLk6GJQsqaUBKTNV-1">
          <mxGeometry x="740" y="350" width="120" height="30" as="geometry" />
        </mxCell>
        <mxCell id="JMFUNdJK3L3s-YcfuzEm-3" value="info" style="rounded=1;whiteSpace=wrap;html=1;" vertex="1" parent="WIyWlLk6GJQsqaUBKTNV-1">
          <mxGeometry x="740" y="390" width="120" height="30" as="geometry" />
        </mxCell>
        <mxCell id="JMFUNdJK3L3s-YcfuzEm-4" value="menu-icon" style="rounded=1;whiteSpace=wrap;html=1;" vertex="1" parent="WIyWlLk6GJQsqaUBKTNV-1">
          <mxGeometry x="740" y="290" width="120" height="30" as="geometry" />
        </mxCell>
        <mxCell id="3mea9cSR7i6ffS_sjvQi-3" value="landing section" style="rounded=1;whiteSpace=wrap;html=1;" vertex="1" parent="WIyWlLk6GJQsqaUBKTNV-1">
          <mxGeometry x="440" y="555" width="120" height="30" as="geometry" />
        </mxCell>
        <mxCell id="3mea9cSR7i6ffS_sjvQi-5" value="main image" style="rounded=1;whiteSpace=wrap;html=1;" vertex="1" parent="WIyWlLk6GJQsqaUBKTNV-1">
          <mxGeometry x="580" y="555" width="120" height="30" as="geometry" />
        </mxCell>
        <mxCell id="3mea9cSR7i6ffS_sjvQi-6" value="overlay" style="rounded=1;whiteSpace=wrap;html=1;" vertex="1" parent="WIyWlLk6GJQsqaUBKTNV-1">
          <mxGeometry x="580" y="598" width="120" height="30" as="geometry" />
        </mxCell>
        <mxCell id="3mea9cSR7i6ffS_sjvQi-19" style="edgeStyle=orthogonalEdgeStyle;rounded=0;orthogonalLoop=1;jettySize=auto;html=1;exitX=0.5;exitY=1;exitDx=0;exitDy=0;entryX=0.5;entryY=0;entryDx=0;entryDy=0;" edge="1" parent="WIyWlLk6GJQsqaUBKTNV-1" source="3mea9cSR7i6ffS_sjvQi-8" target="3mea9cSR7i6ffS_sjvQi-9">
          <mxGeometry relative="1" as="geometry" />
        </mxCell>
        <mxCell id="3mea9cSR7i6ffS_sjvQi-21" style="edgeStyle=orthogonalEdgeStyle;rounded=0;orthogonalLoop=1;jettySize=auto;html=1;exitX=1;exitY=0.5;exitDx=0;exitDy=0;entryX=0;entryY=0.5;entryDx=0;entryDy=0;" edge="1" parent="WIyWlLk6GJQsqaUBKTNV-1" source="3mea9cSR7i6ffS_sjvQi-8" target="3mea9cSR7i6ffS_sjvQi-11">
          <mxGeometry relative="1" as="geometry" />
        </mxCell>
        <mxCell id="3mea9cSR7i6ffS_sjvQi-8" value="footer upper" style="rounded=1;whiteSpace=wrap;html=1;" vertex="1" parent="WIyWlLk6GJQsqaUBKTNV-1">
          <mxGeometry x="780" y="870" width="120" height="30" as="geometry" />
        </mxCell>
        <mxCell id="3mea9cSR7i6ffS_sjvQi-20" style="edgeStyle=orthogonalEdgeStyle;rounded=0;orthogonalLoop=1;jettySize=auto;html=1;exitX=0.5;exitY=1;exitDx=0;exitDy=0;entryX=0.5;entryY=0;entryDx=0;entryDy=0;" edge="1" parent="WIyWlLk6GJQsqaUBKTNV-1" source="3mea9cSR7i6ffS_sjvQi-9" target="3mea9cSR7i6ffS_sjvQi-10">
          <mxGeometry relative="1" as="geometry" />
        </mxCell>
        <mxCell id="3mea9cSR7i6ffS_sjvQi-29" style="edgeStyle=orthogonalEdgeStyle;rounded=0;orthogonalLoop=1;jettySize=auto;html=1;exitX=0;exitY=0.5;exitDx=0;exitDy=0;" edge="1" parent="WIyWlLk6GJQsqaUBKTNV-1" source="3mea9cSR7i6ffS_sjvQi-9">
          <mxGeometry relative="1" as="geometry">
            <mxPoint x="740" y="880" as="targetPoint" />
          </mxGeometry>
        </mxCell>
        <mxCell id="3mea9cSR7i6ffS_sjvQi-9" value="footer line" style="rounded=1;whiteSpace=wrap;html=1;" vertex="1" parent="WIyWlLk6GJQsqaUBKTNV-1">
          <mxGeometry x="780" y="980" width="120" height="30" as="geometry" />
        </mxCell>
        <mxCell id="3mea9cSR7i6ffS_sjvQi-17" style="edgeStyle=orthogonalEdgeStyle;rounded=0;orthogonalLoop=1;jettySize=auto;html=1;exitX=1;exitY=0.5;exitDx=0;exitDy=0;entryX=0;entryY=0.5;entryDx=0;entryDy=0;" edge="1" parent="WIyWlLk6GJQsqaUBKTNV-1" source="3mea9cSR7i6ffS_sjvQi-10" target="3mea9cSR7i6ffS_sjvQi-15">
          <mxGeometry relative="1" as="geometry" />
        </mxCell>
        <mxCell id="3mea9cSR7i6ffS_sjvQi-30" style="edgeStyle=orthogonalEdgeStyle;rounded=0;orthogonalLoop=1;jettySize=auto;html=1;exitX=0;exitY=0.5;exitDx=0;exitDy=0;" edge="1" parent="WIyWlLk6GJQsqaUBKTNV-1" source="3mea9cSR7i6ffS_sjvQi-10">
          <mxGeometry relative="1" as="geometry">
            <mxPoint x="740" y="880" as="targetPoint" />
          </mxGeometry>
        </mxCell>
        <mxCell id="3mea9cSR7i6ffS_sjvQi-10" value="footer lower" style="rounded=1;whiteSpace=wrap;html=1;" vertex="1" parent="WIyWlLk6GJQsqaUBKTNV-1">
          <mxGeometry x="780" y="1100" width="120" height="30" as="geometry" />
        </mxCell>
        <mxCell id="3mea9cSR7i6ffS_sjvQi-11" value="footer logo" style="rounded=1;whiteSpace=wrap;html=1;" vertex="1" parent="WIyWlLk6GJQsqaUBKTNV-1">
          <mxGeometry x="990" y="870" width="120" height="30" as="geometry" />
        </mxCell>
        <mxCell id="3mea9cSR7i6ffS_sjvQi-22" style="edgeStyle=orthogonalEdgeStyle;rounded=0;orthogonalLoop=1;jettySize=auto;html=1;exitX=0;exitY=0.5;exitDx=0;exitDy=0;" edge="1" parent="WIyWlLk6GJQsqaUBKTNV-1" source="3mea9cSR7i6ffS_sjvQi-12">
          <mxGeometry relative="1" as="geometry">
            <mxPoint x="940" y="900" as="targetPoint" />
          </mxGeometry>
        </mxCell>
        <mxCell id="3mea9cSR7i6ffS_sjvQi-23" style="edgeStyle=orthogonalEdgeStyle;rounded=0;orthogonalLoop=1;jettySize=auto;html=1;exitX=1;exitY=0.5;exitDx=0;exitDy=0;entryX=0;entryY=0.5;entryDx=0;entryDy=0;" edge="1" parent="WIyWlLk6GJQsqaUBKTNV-1" source="3mea9cSR7i6ffS_sjvQi-12">
          <mxGeometry relative="1" as="geometry">
            <mxPoint x="1170" y="925" as="targetPoint" />
          </mxGeometry>
        </mxCell>
        <mxCell id="3mea9cSR7i6ffS_sjvQi-12" value="footer info" style="rounded=1;whiteSpace=wrap;html=1;" vertex="1" parent="WIyWlLk6GJQsqaUBKTNV-1">
          <mxGeometry x="990" y="910" width="120" height="30" as="geometry" />
        </mxCell>
        <mxCell id="3mea9cSR7i6ffS_sjvQi-13" value="footer sns" style="rounded=1;whiteSpace=wrap;html=1;" vertex="1" parent="WIyWlLk6GJQsqaUBKTNV-1">
          <mxGeometry x="1170" y="909" width="120" height="30" as="geometry" />
        </mxCell>
        <mxCell id="3mea9cSR7i6ffS_sjvQi-24" style="edgeStyle=orthogonalEdgeStyle;rounded=0;orthogonalLoop=1;jettySize=auto;html=1;" edge="1" parent="WIyWlLk6GJQsqaUBKTNV-1">
          <mxGeometry relative="1" as="geometry">
            <mxPoint x="1140" y="930" as="targetPoint" />
            <mxPoint x="1170" y="965" as="sourcePoint" />
          </mxGeometry>
        </mxCell>
        <mxCell id="3mea9cSR7i6ffS_sjvQi-14" value="footer nav" style="rounded=1;whiteSpace=wrap;html=1;" vertex="1" parent="WIyWlLk6GJQsqaUBKTNV-1">
          <mxGeometry x="1170" y="949" width="120" height="30" as="geometry" />
        </mxCell>
        <mxCell id="3mea9cSR7i6ffS_sjvQi-15" value="footer copyright" style="rounded=1;whiteSpace=wrap;html=1;" vertex="1" parent="WIyWlLk6GJQsqaUBKTNV-1">
          <mxGeometry x="990" y="1100" width="120" height="30" as="geometry" />
        </mxCell>
        <mxCell id="3mea9cSR7i6ffS_sjvQi-18" style="edgeStyle=orthogonalEdgeStyle;rounded=0;orthogonalLoop=1;jettySize=auto;html=1;exitX=0;exitY=0.5;exitDx=0;exitDy=0;" edge="1" parent="WIyWlLk6GJQsqaUBKTNV-1">
          <mxGeometry relative="1" as="geometry">
            <mxPoint x="950" y="1120" as="targetPoint" />
            <mxPoint x="990" y="1154" as="sourcePoint" />
          </mxGeometry>
        </mxCell>
        <mxCell id="3mea9cSR7i6ffS_sjvQi-16" value="footer byline" style="rounded=1;whiteSpace=wrap;html=1;" vertex="1" parent="WIyWlLk6GJQsqaUBKTNV-1">
          <mxGeometry x="990" y="1138" width="120" height="30" as="geometry" />
        </mxCell>
        <mxCell id="3mea9cSR7i6ffS_sjvQi-25" value="text box container" style="rounded=1;whiteSpace=wrap;html=1;" vertex="1" parent="WIyWlLk6GJQsqaUBKTNV-1">
          <mxGeometry x="580" y="640" width="120" height="30" as="geometry" />
        </mxCell>
        <mxCell id="3mea9cSR7i6ffS_sjvQi-28" style="edgeStyle=orthogonalEdgeStyle;rounded=0;orthogonalLoop=1;jettySize=auto;html=1;exitX=1;exitY=0.5;exitDx=0;exitDy=0;entryX=0;entryY=0.5;entryDx=0;entryDy=0;" edge="1" parent="WIyWlLk6GJQsqaUBKTNV-1" source="3mea9cSR7i6ffS_sjvQi-26" target="3mea9cSR7i6ffS_sjvQi-8">
          <mxGeometry relative="1" as="geometry" />
        </mxCell>
        <mxCell id="3mea9cSR7i6ffS_sjvQi-26" value="container" style="rounded=1;whiteSpace=wrap;html=1;" vertex="1" parent="WIyWlLk6GJQsqaUBKTNV-1">
          <mxGeometry x="580" y="870" width="120" height="30" as="geometry" />
        </mxCell>
      </root>
    </mxGraphModel>
  </diagram>
</mxfile>
